<svg xmlns="http://www.w3.org/2000/svg" version="1.1" xmlns:xlink="http://www.w3.org/1999/xlink" xmlns:svgjs="http://svgjs.dev/svgjs" viewBox="0 0 800 800"><defs><linearGradient x1="50%" y1="0%" x2="50%" y2="100%" id="ssscribble-grad"><stop stop-color="#7ecbff" stop-opacity="1" offset="0%"></stop><stop stop-color=" #0033a0" stop-opacity="1" offset="100%"></stop></linearGradient></defs><g fill="none" stroke-width="1.5" stroke="url(#ssscribble-grad)" stroke-linecap="round"><path d="M802.21 621.34C670.45 654.2 658.99 688.7 763.37 722.44 983.58 766.67 904.5 798.46 678.18 767.22 569.78 732.33 534.05 683.75 560.99 629.48 635.26 588.42 717.73 563.56 781.53 568.34 825.53 611.56 833.07 691.57 812.15 800.19 771.8 917.02 719.87 1020.72 668.16 1084.72 612.34 1093.57 565.77 1040.85 532.91 937.45 500.05 816.64 482.46 711.33 476.3 647.68 466.04 639.25 458.18 680.81 441.59 754.72 405.56 846.57 343.9 926.94 249.26 978.95 134.82 999.66 5.17 981.51 -112.16 932.3 -182.17 858.94 -185.4 772.96 -111.22 685.81 6.01 597.12 126.27 518.04 186.25 451.05 142.08 389.27 3.84 337.96 -169.27 294.93 -286.34 254.08 -281.54 217.72 -149.78 184.86 26.88 152 142.95 124.19 139.25 103.07 23.62 84.12 -128.85 75.65 -235.07 80.48 -250.28 90.52 -165.03 115.48 -22.62 153.52 130.09 190.03 240.96 228.84 290.34 259.13 278.55 265.28 226.47 244.48 163.07 189.56 94.66 103.33 49.3 -6.49 31.22 -122.43 28.86 -220.43 47.39 -280.71 77.31 -284.96 112.64 -234.01 149.15 -135.37 182.01 -14.57 214.87 88.84 242.53 148.24 269.17 152.08 301.22 100.77 342.47 15.78 401.77 -76.96 476.8 -161.49 576.28 -212.04 695.34 -221.06 809.39 -191.62 908.64 -127.81 963.5 -43.69 957.19 53.64 885.29 149.4 766.78 234.94 658.59 312.57 602.81 375.2 642.1 424.68 772.41 465.99 943.59 499.9 1071.91 530.58 1088.29 558.81 978.88 588.48 802.21 621.34Q802.21 621.34 802.21 621.34" opacity="0.82"></path><path d="M768.21 614.45C642.29 644.96 617.94 670.71 697.84 690.3 906.64 712.13 945.18 693.02 749.41 646.97 613.44 612.04 522.37 572.41 486.67 536.79 503.63 519.88 553.57 523.61 612.22 556.29 676.04 619.81 720.37 710.52 741.01 817.92 749.16 923.35 737.97 1009.82 714.87 1056.97 687.11 1055.21 655.98 1000.72 625.47 903.45 594.96 791.11 566.5 690.17 536.71 622.6 502.27 600.98 457.95 623.97 396.92 679.94 323.4 759.47 228.82 838.53 117.97 901.23 12.29 944.15 -81.44 955.4 -138.4 937.4 -142.68 895.45 -87.79 834.95 16.39 765.57 126.06 688.2 207.34 613.06 215.86 545.07 134.76 477.99 -12.63 420.18 -168.19 372.11 -259.86 325.13 -241.69 286.27 -115.78 255.75 70.23 200.25 -204.5 228.52 -92.23 271.31 46.31 293.67 180.4 310.36 279.5 312.32 333.82 290.34 341.27 242.91 318.33 168.23 270.86 73.76 223.16 -32.66 187.93 -134.55 155.65 -212.9 142.64 -253.27 147.22 -243.43 155.17 -187.65 175.52 -92.9 206.04 19.42 236.55 116.71 275.78 177.39 325.38 190.95 378.34 155.58 446.86 86.49 532.02 3.42 620.13 -81.61 718.08 -144.95 812.58 -176.71 882.54 -177.62 918.9 -145.18 904.57 -88.29 845.47 -12.68 747.56 70.75 640.78 152.71 574.23 234.68 573.71 307.14 656.99 368.44 800.62 425.03 954.99 472.3 1051.75 512.14 1045.13 550.1 933.13 583.93 768.21 614.45Q768.21 614.45 768.21 614.45" opacity="0.39"></path><path d="M734.21 542.64C614.79 570.81 579.72 589.89 636.09 599.63 758.75 608.44 888.6 606.48 974.29 593.6 991.74 579.73 933.25 556.33 824.24 526.77 691.7 503.02 572.42 481.9 487.81 471.05 443.18 479.96 438.28 509.85 458.78 564.48 500.72 640.9 543.41 734.79 575.93 835.14 614.75 960.52 608.2 987.98 571.66 869.45 543.49 765.66 505.24 669.86 456.11 600.16 404.55 567.69 338.56 573.67 258.31 611.15 176.97 674.66 87.9 745.71 2.55 810.54 -61.36 866.32 -96.89 899.31 -89.18 908.03 -41.48 896.79 44.39 865.34 147.6 820.48 227.29 764.55 260.52 704.51 222.42 646.05 116.09 585.1 -29.79 530.05 -163.32 483.3 -230.56 436.53 -201.19 398.47 -81.78 370.3 122.34 324.02 -168.05 344.89 -135.28 364.24 -36.67 365.69 86.67 356.71 204.5 331.04 303.8 285.41 367.61 219.03 398.37 133.93 400.47 39.77 385.6 -56.53 366.88 -140.69 340.23 -198.82 322.79 -220.84 319.36 -199.26 315.9 -140.44 327.81 -50.36 355.97 53.42 384.14 144.35 427.24 205.3 483.81 226.99 540.36 206.36 609.05 153.65 684.5 83.29 752.04 3.58 813.29 -65.05 854.61 -112.14 867.26 -137.45 843.88 -133.94 781.5 -105.94 700.59 -58.17 610.63 3.38 541.35 70.53 525.99 143.51 575.09 213.29 687.38 275.97 830.13 337.66 960.15 390.87 1025.49 435.18 999.35 478.56 887.09 514.47 734.21 542.64Q734.21 542.64 734.21 542.64" opacity="0.12"></path><path d="M700.21 427.65C587.93 453.47 544.38 468.99 578.88 474.81 677.58 480.64 797.95 477.08 897.7 465.67 952.99 456.17 944.4 442.16 880.94 427.81 778.04 422.23 662 423.97 555.99 438.64 468.2 470.58 411.26 520.74 382.29 589.43 377.49 670.84 387.43 760.99 401.33 849.6 430.08 949.9 437.59 947.27 406.41 835.45 380.59 740.27 340.9 650.34 289.11 580.24 237.85 539.4 176.46 530.52 110.17 550.08 51.53 595.51 -0.92 653.46 -35.91 712.89 -46.74 772.03 -26.87 817.34 27.08 845 99.24 858.85 184.67 854.28 260.69 835.02 297.26 804.83 282.7 766.31 208.48 724.51 89.81 678.41 -45.25 633.89 -153.91 594.16 -198.38 553.64 -160.06 519.66 -47.78 493.84 92.78 468.01 208.31 451.58 260.13 443.41 234.39 434.44 148.26 431.99 37.7 433.34 -67.71 430.4 -130.03 426.4 -136.76 416.8 -91.16 396.27 -5.17 363.78 98.44 316.09 208.3 254.6 303.23 178.68 375.5 92.66 428.09 6.34 459.02 -74.75 475.94 -139.12 481.1 -177.61 483.68 -183.43 490.46 -152.57 494.8 -92.44 508.62 -7.75 534.44 87.41 560.26 171.75 596.85 231.98 641.21 260.16 683.12 252.72 727.51 216.12 767.09 160.4 794.93 90.71 806.52 23.71 793.71 -30.81 761.24 -72.61 703.38 -92.17 627.36 -90.26 557.58 -71.09 502.21 -35.77 483.48 9.6 517.1 63.74 602.58 120.27 726.92 174.51 856.41 230.67 957.24 281.2 992.94 324.06 951.08 366.93 840.79 401.83 700.21 427.65Q700.21 427.65 700.21 427.65" opacity="0.51"></path><path d="M666.15 304.29C561.65 327.76 511.94 342.72 526.92 350.16 600.53 358.25 704.07 360.24 805.33 358.36 884.39 359.93 917.24 361.53 901.56 366.91 843.83 381.21 757.24 404.8 660.39 440.87 560.76 489.57 475.09 551.94 408.87 626.01 358.63 704.95 326.62 785.59 306.92 859.15 293.79 934.07 267.52 905.88 237.03 801.46 213.56 714.94 181.75 631.53 144.32 562.68 109.16 516.02 73.1 494.89 42.24 498.13 21.26 525.07 14.61 566.73 28.68 614.97 58.72 669.05 110.69 717.07 179.55 754.28 275.02 792.09 301.98 787.8 178.77 756.81 60.31 729.51 -56.59 699.75 -139.26 670.49 -163.29 640.12 -118.34 612.44 -13.84 588.97 114.21 565.5 225.23 547.34 287.88 533.45 287.68 518.45 231.35 505.5 141.77 492.13 38.92 474.3 -44.25 451.92 -90.37 421.97 -96.58 383.53 -60.69 334.22 4.74 273.45 91.71 205.47 183.61 129.63 268.68 51.1 348.56 -21.56 412.77 -84.28 461.85 -128.42 502.41 -148.87 533.01 -141.1 558.05 -103.5 580.33 -43.7 602.22 34.94 625.69 121.46 649.16 198.99 673.1 257.52 695.09 290.5 714.32 294.36 726.42 272.87 726.55 232.58 718.15 176.23 692.6 116.64 648.9 62.14 600.01 12.51 541.8 -22.02 485.59 -39.96 450.91 -45.27 442.84 -35.16 473.47 -13.28 544.02 17.51 648.25 54.56 768.3 93.67 875.09 136.23 944.8 176.94 954.08 213.11 900.51 249.94 794.26 280.81 666.21 304.28Q666.15 304.29 666.15 304.29" opacity="0.18"></path><path d="M632.73 209.78C536.37 230.91 482.52 247.3 480.52 259.82 529.27 273.24 610.93 284.57 702.84 295.82 790.64 310.67 851.06 328.79 875.7 352.72 865.81 383.73 823.01 423.67 758.59 473.58 678.11 530.81 595.08 596.61 518.39 667.86 445.48 738.1 385.43 805.03 338.17 861.73 297.35 902.36 265.61 922.4 239.82 917.47 216.22 889.52 194.55 837.87 173.43 767.35 152.31 689.53 132.72 613.21 116.48 547.14 99.09 481.98 123.23 477.83 176.22 523.39 220.35 566.03 273.05 608.44 325.85 645.99 362.58 682.02 380.33 708.52 368.23 724.69 321.59 735.87 242.22 737.45 138.93 731.09 31.54 721.32 -62.13 706.29 -119.03 687.97 -125.19 668.63 -75.62 647.91 20.73 626.78 136.11 605.66 240.57 585.13 309.7 564.63 330.35 543.11 302.72 519.71 239.6 492.88 152.65 462.63 66.96 426.26 -0.44 382.53 -45.02 333.8 -56.06 276.97 -37.06 213.26 6.85 148.02 67.9 80.56 135.71 15.92 210.18 -39.49 279.87 -82.7 340.35 -107.74 398.72 -112.61 446.67 -94.22 484.55 -52.43 520.98 5.47 549.64 77.5 570.76 155.31 591.89 225.84 604.48 281.78 607.89 317.9 609.85 330.99 600.33 322.97 578.57 297.83 554.69 256.61 519.8 208.64 477.89 160.39 442.64 111.14 411.91 70.38 395.68 40.84 404.37 18.61 440.46 9 507.04 10.55 596.44 19.17 701.08 35.84 803.51 57.61 882.11 82.96 921.77 110.06 909.27 136.48 848.29 163.8 748.11 188.66 632.73 209.78Q632.73 209.78 632.73 209.78" opacity="0.80"></path><path d="M598.14 173.04C510.85 191.82 455.65 210.12 440.54 228.37 466.91 247.41 524.71 267.92 599.31 291.1 681.88 317.01 753.18 347.8 803.2 384.57 831.31 425.63 831.62 473.75 808.5 528.4 766.06 585.64 710.89 646.81 650.95 708.56 585.43 765.66 523.71 816.52 469.49 856.1 416.3 881.14 371.91 888.53 336.64 875.72 302.29 845.4 275.63 796.75 256.85 733.42 238.07 664.32 228.06 595.6 227 533.72 226.86 482.95 237.08 446.35 257.74 424.97 279.41 419.55 310.21 427.22 346.8 444.59 377.79 472.09 406 502.97 423.83 533.39 422.34 566.21 399.77 594.08 352.1 615.21 282.53 634.73 194.39 646.57 98.06 650.88 -24.54 651.38 -58.84 622.26 54.14 596.15 156.67 577.37 253.12 555.38 325.23 530.19 362.12 504.35 360.42 474.14 325.83 439.13 263.81 402.28 191.06 359.51 121.28 311.05 58.05 260.98 15.01 206.15 -5.37 148.73 -6.72 93.69 11.86 40.55 44.25 -6.5 88.16 -43.41 136.96 -67.93 184.95 -76.27 236 -68.65 281.59 -42.74 319.09 0.77 356.8 55.41 385.67 120.32 404.44 189.42 423.23 252.75 431.04 305.2 428.74 342.77 426.66 362.82 415.23 366.13 396.72 354.85 381.28 329.03 363.4 295.01 348.42 257.46 344.97 215.26 353.33 176.36 379.28 143.72 424.27 113.69 489.57 92.53 572.34 80.4 661.68 72.57 751.27 72.71 827.06 79.34 875.43 88.7 887.83 102.36 858.2 118.72 793.35 135.89 700.72 154.26 598.2 173.03Q598.14 173.04 598.14 173.04" opacity="0.85"></path><path d="M564.2 204.9C432.43 237.77 416.24 282.88 500.45 341.68 639.72 406.34 747.67 491.82 786.65 592.89 766.76 690.93 698.51 782.49 621.44 840.71 533.33 851.56 466.15 802.83 433.29 699.41 400.43 578.61 404.99 472.03 436.15 404.25 456.28 382.48 473.25 397.61 450.07 429.68 368.02 478.85 225.21 517.01 61.86 533.13 -46.43 547.69 -43.56 538.88 88.2 506.02 264.87 473.16 382.89 419.35 393.33 347.85 305.27 274.78 185.98 185.34 97.6 93.1 45.37 17.95 51.89 -32.02 90.84 -34.33 148.34 9.35 202.81 102.61 235.67 223.41 268.53 326.83 276.67 388.88 276.12 402.12 294.12 367.98 338.88 311.28 434.18 256.31 565.63 198.31 719.78 164.11 831.92 156.39 845.57 154.55 740.87 172.04 564.2 204.9Q564.2 204.9 564.2 204.9" opacity="0.36"></path><path d="M530.15 295.8C410.77 323.97 372.46 370.1 413.93 431.18 515.27 493.64 620.56 570.9 691.86 653.61 733.73 726.38 730.54 786.26 701.71 814.96 658.87 807.81 616.21 756.37 588.04 665.46 559.88 561.67 548.87 465.02 542.9 393.64 522.92 352.96 482.15 341.03 403.36 347.22 295.15 371.31 159.98 394.27 38 404.91 -24.11 417.69 2.77 411.94 122.15 383.77 275.05 355.61 393.95 307.69 438.89 246.1 405.78 186.65 326.68 119.73 245.44 58.73 166.25 15.62 124.16 -2.32 117.09 17.69 122.85 68.42 145.35 153.64 173.51 257.42 201.68 348.35 232.84 411.21 275.89 439.02 331.76 430.97 417.8 400.96 533.91 365.11 706.56 302.66 736.82 263.86 530.21 295.79Q530.15 295.8 530.15 295.8" opacity="0.62"></path><path d="M496.15 418.25C391.65 441.72 339.92 481.66 345.36 533.15 401.73 583.31 478.62 641.23 547.73 697.57 631.2 758.02 651.62 734.15 620.77 631.46 597.3 544.94 567.34 460.98 526.08 392.13 476.38 341.39 403.35 310.4 307.31 294.99 207.45 293.83 105.66 296.86 32.08 295.94 9.43 298.4 51.65 289.93 156.15 266.46 284.21 242.99 395.45 206.73 460.99 163.6 474.07 123.84 444.48 84.18 396.69 54.58 332.64 39.22 282.3 45.31 256.49 78.84 234.08 130.48 234.94 204.91 258.41 291.42 281.87 368.96 325.72 428.82 388.81 465.27 455.29 477.28 542.26 471.51 637.08 457.15 715.64 431.57 770.14 410.29 774.28 400.8 725.96 389.99 624.25 394.77 496.21 418.24Q496.15 418.25 496.15 418.25" opacity="0.80"></path><path d="M462.42 535.12C375.05 553.9 318.67 582.9 298.6 617.78 313.76 650.57 351.08 684.98 394.17 714.28 446.38 734.72 486.68 742.4 507.97 731.71 527.72 706.41 528.71 660.73 509.93 597.41 491.15 528.3 454.38 459.24 402.09 398.27 348.26 346.28 278.66 306.05 201.84 277.24 105.51 250.26 78.67 214.79 190.42 189.52 292.95 170.74 389.19 147.96 460.77 124.96 509.8 97.19 469.41 99.26 438.64 147.64 418.92 194.85 416.17 256.3 434.95 325.41 453.73 388.73 492.26 442.02 544.52 481.08 594.2 505.54 650.76 517.78 701.09 521.95 733.1 517.26 740.3 512.15 711.4 511.91 653.58 509.56 564.95 516.35 462.42 535.12Q462.42 535.12 462.42 535.12" opacity="0.11"></path><path d="M428.15 611.18C308.77 639.34 264.12 676.65 275.08 697.64 325.31 698.14 356.22 654.37 328.06 563.46 299.89 459.66 217.97 361.35 130.83 293.15 82.96 241.21 104.77 204.54 224.15 176.38 377.06 148.21 497.64 133.88 552.55 148.9 562.69 180.18 560.99 255.66 589.16 359.46 617.33 450.37 670.03 516.97 696.8 553.39 678.81 569.31 581.06 583.01 428.15 611.18Q428.15 611.18 428.15 611.18" opacity="0.21"></path><path d="M394.21 623.24C252.78 660.8 230.16 644.35 192.61 529.45 155.05 391.95 116.78 268.43 258.21 230.87 457.3 193.32 582.75 255.95 620.31 393.45 657.86 508.35 593.3 585.69 394.21 623.24Q394.21 623.24 394.21 623.24" opacity="0.74"></path></g></svg>