<svg xmlns="http://www.w3.org/2000/svg" version="1.1" xmlns:xlink="http://www.w3.org/1999/xlink" xmlns:svgjs="http://svgjs.dev/svgjs" viewBox="0 0 2400 800" opacity="0.61"><defs><linearGradient x1="50%" y1="0%" x2="50%" y2="100%" id="sssurf-grad"><stop stop-color="hsl(205, 69%, 60%)" stop-opacity="1" offset="0%"></stop><stop stop-color="hsl(205, 69%, 80%)" stop-opacity="1" offset="100%"></stop></linearGradient></defs><g fill="url(#sssurf-grad)" transform="matrix(1,0,0,1,0,-91.66915893554688)"><path d="M 0 335.15551415768556 Q 450 574.7685940090645 600 304.9033148926263 Q 1050 565.443048361671 1200 343.3326784148857 Q 1650 623.3889441974893 1800 326.2305685033373 Q 2250 578.8447777267678 2400 336.34861511820793 L 2400 800 L 0 800 L 0 303.338350340946 Z" transform="matrix(1,0,0,1,0,35)" opacity="0.05"></path><path d="M 0 335.15551415768556 Q 450 574.7685940090645 600 304.9033148926263 Q 1050 565.443048361671 1200 343.3326784148857 Q 1650 623.3889441974893 1800 326.2305685033373 Q 2250 578.8447777267678 2400 336.34861511820793 L 2400 800 L 0 800 L 0 303.338350340946 Z" transform="matrix(1,0,0,1,0,70)" opacity="0.21"></path><path d="M 0 335.15551415768556 Q 450 574.7685940090645 600 304.9033148926263 Q 1050 565.443048361671 1200 343.3326784148857 Q 1650 623.3889441974893 1800 326.2305685033373 Q 2250 578.8447777267678 2400 336.34861511820793 L 2400 800 L 0 800 L 0 303.338350340946 Z" transform="matrix(1,0,0,1,0,105)" opacity="0.37"></path><path d="M 0 335.15551415768556 Q 450 574.7685940090645 600 304.9033148926263 Q 1050 565.443048361671 1200 343.3326784148857 Q 1650 623.3889441974893 1800 326.2305685033373 Q 2250 578.8447777267678 2400 336.34861511820793 L 2400 800 L 0 800 L 0 303.338350340946 Z" transform="matrix(1,0,0,1,0,140)" opacity="0.53"></path><path d="M 0 335.15551415768556 Q 450 574.7685940090645 600 304.9033148926263 Q 1050 565.443048361671 1200 343.3326784148857 Q 1650 623.3889441974893 1800 326.2305685033373 Q 2250 578.8447777267678 2400 336.34861511820793 L 2400 800 L 0 800 L 0 303.338350340946 Z" transform="matrix(1,0,0,1,0,175)" opacity="0.68"></path><path d="M 0 335.15551415768556 Q 450 574.7685940090645 600 304.9033148926263 Q 1050 565.443048361671 1200 343.3326784148857 Q 1650 623.3889441974893 1800 326.2305685033373 Q 2250 578.8447777267678 2400 336.34861511820793 L 2400 800 L 0 800 L 0 303.338350340946 Z" transform="matrix(1,0,0,1,0,210)" opacity="0.84"></path><path d="M 0 335.15551415768556 Q 450 574.7685940090645 600 304.9033148926263 Q 1050 565.443048361671 1200 343.3326784148857 Q 1650 623.3889441974893 1800 326.2305685033373 Q 2250 578.8447777267678 2400 336.34861511820793 L 2400 800 L 0 800 L 0 303.338350340946 Z" transform="matrix(1,0,0,1,0,245)" opacity="1"></path></g></svg>