<svg xmlns="http://www.w3.org/2000/svg" version="1.1" xmlns:xlink="http://www.w3.org/1999/xlink" xmlns:svgjs="http://svgjs.dev/svgjs" viewBox="0 0 800 800" opacity="0.53"><defs><linearGradient x1="50%" y1="0%" x2="50%" y2="100%" id="uundulate-grad"><stop stop-color=" #7ecbff" stop-opacity="1" offset="45%"></stop><stop stop-color=" #0033a0" stop-opacity="1" offset="100%"></stop></linearGradient></defs><g stroke-width="5" stroke="url(#uundulate-grad)" fill="none"><path d="M656.1148198929437 461.2269799719213C679.464658607922 621.8932773805165 526.2642837055541 764.689682886072 419.90821541095386 784.6509746714391C313.5521471163536 804.6122664568068 168.95553079384104 717.7074779502793 145.60569207886272 557.0411805416843C122.2558533638844 396.37488313308927 201.47292128445827 33.41403889555119 307.82898957905854 13.452747110183736C414.1850578736587 -6.508544675183657 632.7649811779654 300.5606825633263 656.1148198929437 461.2269799719213C679.464658607922 621.8932773805165 526.2642837055541 764.689682886072 419.90821541095386 784.6509746714391 "></path><path d="M632.8316322535284 455.6609269497935C654.0587583580541 601.7211973212436 514.7856902649924 731.5361114172033 418.0983554517195 749.6827403129919C321.41102063844653 767.8293692087805 189.9595512543441 688.8250160210282 168.73242514981837 542.7647456495781C147.5052990452926 396.70447527812803 219.52081533672344 66.74007142582064 316.2081501499964 48.59344253003212C412.8954849632694 30.44681363424354 611.6045061490026 309.60065657834355 632.8316322535284 455.6609269497935C654.0587583580541 601.7211973212436 514.7856902649924 731.5361114172033 418.0983554517195 749.6827403129919 "></path><path d="M609.5484751316912 450.0948128925096C628.6528886257645 581.5490562268146 503.3071273420087 698.3824789131781 416.28852601006315 714.7144449193879C329.2699246781175 731.0464109255976 210.96360223242533 659.9424930566207 191.85918873835215 528.4882497223156C172.75477524427896 397.03400638801054 237.5687399065667 100.06604292093391 324.5873412385124 83.7340769147242C411.60594257045807 67.40211090851449 590.444061637618 318.64056955820456 609.5484751316912 450.0948128925096C628.6528886257645 581.5490562268146 503.3071273420087 698.3824789131781 416.28852601006315 714.7144449193879 "></path><path d="M586.2653180098539 444.5287598703817C603.2470188934747 561.3769761675418 491.82856441902516 665.2289074443094 414.4786965684068 679.7462105609402C337.12882871778845 694.263513677571 231.96765321050657 631.0600311273694 214.98595232688592 514.2118148302093C198.00425144326533 397.3635985330493 255.61666447641 133.39207545120343 332.96653232702835 118.87477233457258C410.31640017764676 104.35746921794168 569.2836171262334 327.6805435732217 586.2653180098539 444.5287598703817C603.2470188934747 561.3769761675418 491.82856441902516 665.2289074443094 414.4786965684068 679.7462105609402 "></path><path d="M562.9821608880168 438.9626305543087C577.8411491611848 541.2048198143236 480.3500014960415 632.0752596814954 412.66886712675046 644.7778999085474C344.9877327574594 657.4805401355993 252.97170418858775 602.1774929041728 238.11271591541976 499.9353036441578C223.2537276422517 397.69311438414275 273.6645890462533 166.71803168752757 341.34572341554434 154.0153914604756C409.02685778483533 141.31275123342363 548.1231726148487 336.72044129429355 562.9821608880168 438.9626305543087C577.8411491611848 541.2048198143236 480.3500014960415 632.0752596814954 412.66886712675046 644.7778999085474 "></path><path d="M539.6990037661797 433.39656227339174C552.435279428895 521.0327244962618 468.87143857305796 598.9216729538375 410.8590376850941 609.8096502913106C352.8466367971304 620.6976276287838 273.975755166669 573.2950157161326 261.23947950395353 485.65885349326254C248.50320384123808 398.02269127039244 291.71251361609654 200.04404895900802 349.72491450406034 189.15607162153486C407.73731539202413 178.26809428406176 526.9627281034641 345.76040005052175 539.6990037661797 433.39656227339174C552.435279428895 521.0327244962618 468.87143857305796 598.9216729538375 410.8590376850941 609.8096502913106 "></path><path d="M516.4158161267642 427.8304482161077C527.029379179027 500.86058340183274 457.3928451324962 565.7680404498126 409.04917772585975 574.8413548977069C360.70551031922327 583.9146693456012 294.97977562717205 544.412492751725 284.3662125749092 471.382357566C273.7526495226463 398.35222238027495 309.7604076683617 233.3700204541213 358.1040750749982 224.296706006227C406.4477424816347 215.2233915583327 505.8022530745013 354.8003130303827 516.4158161267642 427.8304482161077C527.029379179027 500.86058340183274 457.3928451324962 565.7680404498126 409.04917772585975 574.8413548977069 "></path><path d="M493.132674263716 422.2643494176127C501.6235247055264 480.6884575661927 445.91429746830164 532.6144232045765 407.23936354299246 539.873074762892C368.5644296176833 547.1317263212075 315.98384186404235 515.5299850461065 307.492991422232 457.1058768975265C299.00214098042176 398.6817687489465 327.8083474969941 266.69600720802356 366.48328142230326 259.43735564970814C405.15821534761244 252.17870409139272 484.64182382190575 363.84024126903273 493.132674263716 422.2643494176127C501.6235247055264 480.6884575661927 445.91429746830164 532.6144232045765 407.23936354299246 539.873074762892 "></path><path d="M469.84948662430077 416.69828113669587C476.21762445565844 460.5163622481309 434.4357040277399 499.46083647691876 405.429503583758 504.9048251456553C376.4233031397761 510.34881381439186 336.9878623245454 486.6475078580663 330.6197244931877 442.82942674663127C324.25158666182995 399.0113456351962 345.8562415492592 300.022024479504 374.8624419932411 294.57803581076746C403.868642437223 289.13404714203085 463.481348792943 372.8802000252609 469.84948662430077 416.69828113669587C476.21762445565844 460.5163622481309 434.4357040277399 499.46083647691876 405.429503583758 504.9048251456553 "></path><path d="M446.56634476125254 411.1321823382009C450.8117699821577 440.3442364124909 422.9571563635453 466.3072192316828 403.61968940089076 469.9365450108405C384.28222243823615 473.56587078999826 357.9919285614157 457.7650001524478 353.74650334051057 428.5529460781578C349.5010781196054 399.3408920038678 363.9041813778916 333.34801123340634 383.24164834054613 329.7186854542486C402.57911530320075 326.0893596750909 442.3209195403474 381.9201282639109 446.56634476125254 411.1321823382009C450.8117699821577 440.3442364124909 422.9571563635453 466.3072192316828 403.61968940089076 469.9365450108405 "></path><path d="M423.2831723806263 405.566098798495C425.40588499107884 420.17212583564 411.47857818177266 433.1536172452359 401.8098447004454 434.9682801348148C392.1411112191181 436.78294302439366 378.9959642807078 428.8825077056184 376.8732516702553 414.2764806684734C374.7505390598027 399.6704536313284 381.95209068894576 366.6740132460977 391.62082417027307 364.85935035651886C401.2895576516004 363.04468746694 421.1604597701737 390.96007176135 423.2831723806263 405.566098798495C425.40588499107884 420.17212583564 411.47857818177266 433.1536172452359 401.8098447004454 434.9682801348148 "></path></g></svg>