<svg xmlns="http://www.w3.org/2000/svg" version="1.1" xmlns:xlink="http://www.w3.org/1999/xlink" xmlns:svgjs="http://svgjs.dev/svgjs" viewBox="0 0 1422 800"><defs><filter id="uuunion-blur" x="-100%" y="-100%" width="400%" height="400%" color-interpolation-filters="sRGB">
        <feGaussianBlur in="SourceGraphic" stdDeviation="7.5 0" result="blur"></feGaussianBlur>
        <feDropShadow stdDeviation="12.307692307692308" in="blur" dx="10" dy="10" flood-color=" #7ecbff" flood-opacity="0.25" x="0%" y="0%" width="100%" height="100%"></feDropShadow>
      </filter><filter id="uuunion-blur2" x="-100%" y="-100%" width="400%" height="400%" color-interpolation-filters="sRGB">
        <feGaussianBlur in="SourceGraphic" stdDeviation="7.5 0" result="blur"></feGaussianBlur>
        <feDropShadow stdDeviation="12.307692307692308" in="blur" dx="-10" dy="-10" flood-color=" #7ecbff" flood-opacity="0.25" x="0%" y="0%" width="100%" height="100%"></feDropShadow>
      </filter><linearGradient gradientTransform="rotate(0, 0.5, 0.5)" x1="50%" y1="0%" x2="50%" y2="100%" id="uuunion-grad"><stop stop-color="white" offset="10%"></stop><stop stop-color=" #7ecbff" offset="90%"></stop></linearGradient><linearGradient gradientTransform="rotate(135, 0.5, 0.5)" x1="50%" y1="0%" x2="50%" y2="100%" id="uuunion-grad2"><stop stop-color="white" offset="25%"></stop><stop stop-color=" #7ecbff" offset="100%"></stop></linearGradient><linearGradient gradientTransform="rotate(333, 0.5, 0.5)" x1="50%" y1="0%" x2="50%" y2="100%" id="uuunion-grad3"><stop stop-color="white" offset="0%"></stop><stop stop-color=" #7ecbff" offset="75%"></stop></linearGradient></defs><path d="M-131.89 -88.33Q-118.89 -88.79 -105.89 -88.34 -92.89 -87.01 -79.89 -84.94 -66.89 -82.36 -53.89 -79.52 -40.89 -76.74 -27.89 -74.3 -14.89 -72.45 -1.89 -71.4 11.1 -71.25 24.11 -72.01 37.11 -73.61 50.11 -75.88 63.11 -78.58 76.11 -81.43 89.11 -84.13 102.11 -86.39 115.11 -87.99 128.11 -88.74 141.11 -88.59 154.11 -87.53 167.11 -85.68 180.11 -83.23 193.11 -80.45 206.11 -77.62 219.11 -75.04 232.11 -72.97 245.11 -71.65 258.11 -71.2 271.11 -71.67 284.12 -73.01 297.12 -75.08 310.12 -77.67 323.12 -80.51 336.12 -83.29 349.12 -85.72 362.12 -87.56 375.12 -88.6 388.12 -88.74 401.12 -87.96 414.12 -86.35 427.12 -84.08 440.12 -81.37 453.12 -78.52 466.12 -75.83 479.12 -73.57 492.12 -71.99 505.12 -71.24 518.13 -71.41 531.13 -72.48 544.13 -74.34 557.13 -76.79 570.13 -79.58 583.13 -82.41 596.13 -84.99 609.13 -87.04 622.13 -88.36 635.13 -88.79 648.13 -88.31 661.13 -86.96 674.13 -84.87 687.13 -82.28 700.13 -79.44 713.13 -76.67 726.13 -74.24 739.13 -72.41 752.14 -71.38 765.14 -71.26 778.14 -72.04 791.14 -73.67 804.14 -75.95 817.14 -78.66 830.14 -81.51 843.14 -84.2 856.14 -86.45 869.14 -88.02 882.14 -88.75 895.14 -88.57 908.14 -87.48 921.14 -85.62 934.14 -83.16 947.14 -80.37 960.14 -77.54 973.14 -74.97 986.15 -72.93 999.15 -71.62 1012.15 -71.2 1025.15 -71.69 1038.15 -73.06 1051.15 -75.15 1064.15 -77.75 1077.15 -80.59 1090.15 -83.36 1103.15 -85.78 1116.15 -87.6 1129.15 -88.61 1142.15 -88.73 1155.15 -87.93 1168.15 -86.3 1181.15 -84 1194.16 -81.29 1207.16 -78.44 1220.16 -75.76 1233.16 -73.52 1246.16 -71.95 1259.16 -71.23 1272.16 -71.43 1285.16 -72.53 1298.16 -74.41 1311.16 -76.87 1324.16 -79.66 1337.16 -82.49 1350.16 -85.05 1363.16 -87.09 1376.16 -88.38 1389.16 -88.79 1402.16 -88.28 1415.17 -86.91 1428.17 -84.81 1441.17 -82.2 1454.17 -79.36 1467.17 -76.59 1480.17 -74.18 1493.17 -72.37 1506.17 -71.37 1519.17 -71.27 1532.17 -72.08 1530.31 -56.88 1532.72 -41.67 1539.11 -26.47 1548.66 -11.27 1560.17 3.92 1572.19 19.13 1583.2 34.33 1591.81 49.53 1596.94 64.73 1597.94 79.93 1594.67 95.14 1587.56 110.34 1577.5 125.54 1565.77 140.74 1553.83 155.95 1543.2 171.15 1535.22 186.35 1530.9 201.55 1530.78 216.76 1534.88 231.96 1542.67 247.16 1553.19 262.36 1565.09 277.57 1576.88 292.77 1587.07 307.97 1594.37 323.17 1597.86 338.38 1597.11 353.58 1592.2 368.78 1583.76 383.98 1572.85 399.19 1560.84 414.39 1549.26 429.59 1539.57 444.79 1532.98 459.99 1530.33 475.2 1531.96 490.4 1537.65 505.6 1546.69 520.8 1557.95 536.01 1569.99 551.21 1581.3 566.41 1590.45 581.61 1596.29 596.82 1598.08 612.02 1595.59 627.22 1589.14 642.42 1579.54 657.63 1568.01 672.83 1555.99 688.03 1545.01 703.23 1536.45 718.44 1531.39 733.64 1530.48 748.84 1533.81 764.04 1540.98 779.24 1551.08 794.45 1562.84 809.65 1574.76 824.85 1585.36 840.05 1593.28 855.26 1597.53 870.46 1597.57 885.66 1593.41 900.86 1579.77 903.01 1566.14 902.74 1552.51 900.09 1538.88 895.33 1525.24 888.97 1511.61 881.66 1497.98 874.18 1484.34 867.31 1470.71 861.77 1457.08 858.14 1443.45 856.8 1429.81 857.89 1416.18 861.29 1402.55 866.66 1388.91 873.42 1375.28 880.87 1361.65 888.23 1348.02 894.73 1334.38 899.68 1320.75 902.57 1307.12 903.09 1293.48 901.2 1279.85 897.08 1266.22 891.17 1252.59 884.09 1238.95 876.58 1225.32 869.43 1211.69 863.38 1198.05 859.08 1184.42 856.97 1170.79 857.27 1157.16 859.95 1143.52 864.74 1129.89 871.12 1116.26 878.43 1102.63 885.91 1088.99 892.77 1075.36 898.28 1061.73 901.89 1048.09 903.19 1034.46 902.07 1020.83 898.63 1007.2 893.24 993.56 886.46 979.93 879.01 966.3 871.66 952.66 865.18 939.03 860.25 925.4 857.39 911.77 856.91 898.13 858.84 884.5 862.99 870.87 868.92 857.24 876.01 843.6 883.52 829.97 890.66 816.34 896.68 802.7 900.96 789.07 903.03 775.44 902.7 761.81 899.98 748.17 895.17 734.54 888.77 720.91 881.45 707.28 873.98 693.64 867.13 680.01 861.64 666.38 858.07 652.74 856.8 639.11 857.95 625.48 861.42 611.85 866.83 598.21 873.63 584.58 881.09 570.95 888.43 557.32 894.9 543.68 899.8 530.05 902.62 516.42 903.07 502.78 901.11 489.15 896.93 475.52 890.98 461.89 883.88 448.25 876.37 434.62 869.24 420.99 863.23 407.36 858.99 393.72 856.94 380.09 857.31 366.46 860.06 352.82 864.9 339.19 871.32 325.56 878.65 311.93 886.12 298.29 892.94 284.66 898.41 271.03 901.96 257.4 903.19 243.76 902 230.13 898.51 216.5 893.07 202.86 886.26 189.23 878.8 175.6 871.46 161.97 865.01 148.33 860.14 134.7 857.35 121.07 856.93 107.44 858.92 93.8 863.13 80.17 869.1 66.54 876.22 52.9 883.73 39.27 890.85 25.64 896.83 12.01 901.05 -1.62 903.06 -15.25 902.65 -28.88 899.87 -42.51 895.01 -56.15 888.57 -69.78 881.24 -83.41 873.77 -97.04 866.96 -110.68 861.51 -124.31 858 -137.94 856.8 -151.58 858.02 -152.92 843.23 -152.9 828.45 -151.53 813.66 -148.99 798.87 -145.58 784.09 -141.75 769.3 -137.97 754.51 -134.72 739.73 -132.42 724.94 -131.35 710.15 -131.64 695.36 -133.27 680.58 -136.02 665.79 -139.55 651 -143.41 636.22 -147.12 621.43 -150.2 606.64 -152.28 591.86 -153.08 577.07 -152.5 562.28 -150.62 547.5 -147.68 532.71 -144.05 517.92 -140.18 503.14 -136.56 488.35 -133.65 473.56 -131.82 458.77 -131.3 443.99 -132.15 429.2 -134.27 414.41 -137.39 399.63 -141.11 384.84 -144.97 370.05 -148.47 355.27 -151.19 340.48 -152.77 325.69 -153.01 310.91 -151.88 296.12 -149.54 281.33 -146.26 266.54 -142.47 251.76 -138.65 236.97 -135.27 222.18 -132.76 207.4 -131.44 192.61 -131.48 177.82 -132.87 163.04 -135.44 148.25 -138.85 133.46 -142.69 118.68 -146.46 103.89 -149.7 89.1 -151.98 74.32 -153.03 59.53 -152.71 44.74 -151.06 29.95 -148.29 15.17 -144.75 0.38 -140.89 -14.4 -137.19 -29.18 -134.12 -43.97 -132.07 -58.76 -131.29 -73.54 -131.89 -88.33" fill="url(#uuunion-grad)"></path><path d="M-131.9 -88.33Q-131.3 -73.54 -132.08 -58.76 -134.13 -43.97 -137.2 -29.18 -140.9 -14.4 -144.76 0.38 -148.3 15.17 -151.07 29.96 -152.72 44.74 -153.04 59.53 -151.99 74.32 -149.71 89.1 -146.47 103.89 -142.7 118.68 -138.86 133.46 -135.45 148.25 -132.88 163.04 -131.49 177.82 -131.45 192.61 -132.77 207.4 -135.28 222.19 -138.66 236.97 -142.48 251.76 -146.27 266.55 -149.55 281.33 -151.89 296.12 -153.02 310.91 -152.78 325.69 -151.2 340.48 -148.48 355.27 -144.98 370.05 -141.12 384.84 -132.25 384.09 -123.39 384.09 -114.52 384.83 -105.66 386.27 -96.8 388.37 -87.93 391 -79.07 394.06 -70.2 397.39 -61.34 400.85 -52.47 404.27 -43.61 407.48 -34.74 410.35 -25.88 412.73 -17.02 414.51 -0.26 415.89 2.69 415.98 13.25 412.02 23.85 406.96 34.49 400.96 45.19 394.23 55.93 387.03 66.72 379.66 77.56 372.43 88.46 365.63 99.4 359.54 110.4 354.36 121.44 350.24 132.53 347.24 143.67 345.35 154.84 344.46 166.06 344.42 177.31 344.99 188.59 345.9 199.9 346.85 211.24 347.56 222.59 347.74 233.96 347.15 245.34 345.62 256.73 343.04 268.11 339.37 279.49 334.66 290.87 329.04 302.23 322.68 313.57 315.83 324.88 308.76 336.17 301.77 347.43 295.12 358.66 289.07 369.85 283.84 380.99 279.56 392.1 276.32 403.16 274.12 414.17 272.89 425.14 272.47 436.05 272.67 446.92 273.25 457.74 273.93 468.51 274.43 479.24 274.5 489.92 273.9 500.56 272.46 511.16 270.05 521.73 266.64 532.26 262.25 542.76 256.98 553.24 250.99 563.7 244.5 574.14 237.75 584.58 231 595.01 224.52 605.44 218.55 615.89 213.3 626.34 208.91 636.82 205.47 647.33 203 657.87 201.43 668.45 200.66 679.07 200.5 689.74 200.74 700.48 201.12 711.27 201.4 722.13 201.33 733.06 200.68 744.06 199.29 755.14 197.03 766.31 193.84 777.56 189.74 788.89 184.81 800.32 179.17 811.83 173.03 823.43 166.6 835.13 160.12 846.9 153.84 858.77 147.98 870.72 142.75 882.74 138.28 894.85 134.67 907.03 131.95 919.27 130.08 931.58 128.97 943.94 128.46 956.35 128.36 968.8 128.44 981.29 128.48 993.8 128.24 1006.33 127.51 1018.87 126.13 1031.41 123.97 1043.93 120.97 1056.44 117.13 1068.92 112.51 1081.36 107.22 1093.75 101.42 1106.09 95.32 1118.36 89.12 1130.55 83.06 1142.65 77.34 1154.67 72.16 1166.58 67.65 1178.38 63.91 1190.07 60.98 1201.63 58.84 1213.07 57.41 1224.37 56.56 1235.54 56.12 1246.56 55.89 1257.44 55.66 1268.17 55.23 1278.76 54.39 1289.2 52.99 1299.49 50.9 1309.64 48.06 1319.65 44.44 1329.51 40.11 1339.25 35.14 1348.85 29.68 1358.33 23.9 1367.7 18 1376.96 12.18 1386.12 6.63 1395.2 1.53 1404.19 -2.98 1413.12 -6.81 1422 -9.92 1409.79 -27.16 1399.67 -44.4 1393.37 -61.64 1391.97 -78.87 1395.71 -96.11 1403.94 -113.35 1415.32 -139.18 1403 -147.02 1390.62 -145.64 1378.25 -143.75 1365.87 -141.52 1353.5 -139.16 1341.12 -136.88 1328.75 -134.87 1316.38 -133.32 1304 -132.37 1291.63 -132.1 1279.25 -132.54 1266.88 -133.64 1254.51 -135.32 1242.13 -137.41 1229.76 -139.73 1217.38 -142.08 1205.01 -144.24 1192.64 -146.02 1180.26 -147.26 1167.89 -147.85 1155.51 -147.74 1143.14 -146.93 1130.77 -145.51 1118.39 -143.59 1106.02 -141.34 1093.64 -138.98 1081.27 -136.71 1068.89 -134.73 1056.52 -133.22 1044.15 -132.32 1031.77 -132.11 1019.4 -132.6 1007.02 -133.75 994.65 -135.47 982.28 -137.58 969.9 -139.92 957.53 -142.26 945.15 -144.4 932.78 -146.14 920.41 -147.33 908.03 -147.87 895.66 -147.7 883.28 -146.84 870.91 -145.37 858.54 -143.42 846.16 -141.16 833.79 -138.8 821.41 -136.54 809.04 -134.59 796.66 -133.13 784.29 -132.28 771.92 -132.12 759.54 -132.67 747.17 -133.87 734.79 -135.62 722.42 -137.76 710.05 -140.1 697.67 -142.43 685.3 -144.55 672.92 -146.25 660.55 -147.4 648.18 -147.88 635.8 -147.66 623.43 -146.75 611.05 -145.24 598.68 -143.25 586.3 -140.98 573.93 -138.62 561.56 -136.38 549.18 -134.46 536.81 -133.04 524.43 -132.24 512.06 -132.14 499.69 -132.74 487.31 -133.99 474.94 -135.77 462.56 -137.94 450.19 -140.29 437.82 -142.61 425.44 -144.7 413.07 -146.36 400.69 -147.46 388.32 -147.89 375.95 -147.61 363.57 -146.65 351.2 -145.1 338.82 -143.09 326.45 -140.8 314.07 -138.44 301.7 -136.22 289.33 -134.33 276.95 -132.96 264.58 -132.21 252.2 -132.16 239.83 -132.81 227.46 -134.11 215.08 -135.93 202.71 -138.11 190.33 -140.47 177.96 -142.78 165.59 -144.84 153.21 -146.47 140.84 -147.52 128.46 -147.89 116.09 -147.56 103.72 -146.55 91.34 -144.96 78.97 -142.92 66.59 -140.62 54.22 -138.26 41.84 -136.06 29.47 -134.21 17.1 -132.88 4.72 -132.18 -7.64 -132.19 -20.02 -132.89 -32.39 -134.23 -44.76 -136.09 -57.14 -138.29 -69.51 -140.65 -81.89 -142.95 -94.26 -144.99 -106.63 -146.57 -119.01 -147.57 -131.38 -147.89 -146.48 -139.73 -142.58 -117.44 -136.69 -102.9 -131.9 -88.33" fill="url(#uuunion-grad2)" filter="url(#uuunion-blur)"></path><path d="M1451.33 305.31Q1460.44 306.05 1469.56 307.45 1478.67 309.43 1487.79 311.91 1496.9 314.76 1506.02 317.86 1515.13 321.06 1524.25 324.21 1533.36 327.16 1542.47 329.78 1551.59 331.94 1560.7 333.54 1569.82 334.51 1578.93 334.79 1588.05 334.39 1597.16 333.31 1597.53 351.04 1592.2 368.78 1582.08 386.52 1568.89 404.25 1554.91 421.99 1542.51 439.72 1533.82 457.46 1530.33 475.2 1532.64 492.93 1540.34 510.67 1552.13 528.41 1565.98 546.14 1579.53 563.88 1590.45 581.61 1596.88 599.35 1597.72 617.09 1592.82 634.82 1583.02 652.56 1570 670.29 1555.99 688.03 1543.38 705.77 1534.34 723.5 1530.4 741.24 1532.24 758.98 1539.55 776.71 1551.08 794.45 1564.86 812.18 1578.51 829.92 1589.72 847.66 1596.56 865.39 1597.87 883.13 1593.41 900.86 1580.9 902.92 1568.4 902.95 1555.89 900.96 1543.39 897.11 1530.88 891.76 1518.38 885.36 1505.87 878.49 1493.37 871.76 1480.86 865.75 1468.36 861 1455.85 857.92 1443.35 856.8 1430.84 857.72 1418.34 860.61 1405.84 865.21 1393.33 871.12 1380.83 877.81 1368.32 884.69 1355.82 891.16 1343.31 896.64 1330.81 900.66 1318.3 902.85 1305.8 903.02 1293.29 901.15 1280.79 897.42 1268.28 892.15 1255.78 885.81 1243.27 878.96 1230.77 872.19 1218.26 866.12 1205.76 861.27 1193.25 858.07 1180.75 856.81 1168.24 857.6 1155.74 860.36 1143.24 864.86 1130.73 870.69 1118.23 877.35 1105.72 884.24 1093.22 890.75 1080.71 896.32 1068.21 900.44 1055.7 902.76 1043.2 903.07 1030.69 901.34 1018.19 897.73 1005.68 892.55 993.18 886.26 980.67 879.42 968.17 872.63 955.66 866.49 943.16 861.54 930.65 858.23 918.15 856.83 905.65 857.48 893.14 860.12 880.64 864.51 868.13 870.27 855.63 876.89 843.12 883.78 830.62 890.34 818.11 895.99 805.61 900.22 793.1 902.67 780.6 903.11 768.09 901.52 755.59 898.02 743.08 892.93 730.58 886.71 718.07 879.88 705.57 873.07 693.06 866.87 680.56 861.83 668.06 858.39 655.55 856.86 643.05 857.37 630.54 859.88 618.04 864.17 605.53 869.85 593.03 876.43 580.52 883.32 568.02 889.92 555.51 895.65 543.01 899.99 530.5 902.56 518 903.15 505.49 901.69 492.99 898.31 480.48 893.32 467.98 887.15 455.47 880.35 442.97 873.52 430.46 867.26 417.96 862.12 405.46 858.56 392.95 856.9 380.45 857.27 367.94 859.65 355.44 863.83 342.93 869.44 330.43 875.97 317.92 882.86 305.42 889.5 292.91 895.3 280.41 899.75 267.9 902.45 255.4 903.17 242.89 901.85 230.39 898.59 217.88 893.69 205.38 887.59 192.87 880.81 180.37 873.96 167.87 867.65 155.36 862.42 142.86 858.75 130.35 856.95 117.85 857.18 105.34 859.44 92.84 863.5 80.33 869.02 67.83 875.52 55.32 882.4 42.82 889.08 30.31 894.95 17.81 899.5 -1.28 897.68 -8.17 882.89 -8.07 872.74 -7.56 862.59 -6.68 852.44 -5.48 842.29 -2.97 827.07 -1.4 822 12.16 814.64 25.64 805.38 39.01 794.5 52.26 782.44 65.36 769.74 78.32 757.02 91.13 744.85 103.8 733.78 116.32 724.24 128.73 716.52 141.02 710.75 153.22 706.85 165.35 704.6 177.44 703.61 189.5 703.39 201.56 703.38 213.64 703 225.77 701.71 237.95 699.08 250.21 694.77 262.55 688.63 274.99 680.67 287.53 671.05 300.16 660.1 312.88 648.27 325.69 636.07 338.56 624.06 351.48 612.77 364.44 602.65 377.41 594.05 390.37 587.16 403.29 582.03 416.16 578.54 428.94 576.42 441.63 575.27 454.19 574.62 466.62 573.95 478.9 572.75 491.03 570.55 503 567 514.83 561.86 526.51 555.05 538.07 546.63 549.51 536.82 560.87 525.96 572.17 514.49 583.44 502.89 594.72 491.65 606.04 481.24 617.43 472.01 628.93 464.24 640.58 458.05 652.41 453.41 664.44 450.17 676.71 448.02 689.22 446.58 702.01 445.4 715.06 444.01 728.39 441.97 741.98 438.9 755.83 434.51 769.9 428.66 784.18 421.32 798.63 412.61 808.74 408.68 818.87 404.21 829.01 399.37 839.17 394.36 849.34 389.39 859.53 384.68 869.73 380.41 879.95 376.76 890.17 373.85 900.42 371.78 910.67 370.58 920.93 370.26 931.21 370.76 941.49 371.99 951.79 373.79 962.09 376 972.41 378.43 982.73 380.87 993.05 383.11 1003.39 384.95 1013.72 386.24 1024.07 386.82 1034.41 386.59 1044.76 385.51 1055.12 383.56 1065.47 380.78 1075.82 377.26 1086.18 373.14 1096.53 368.56 1106.88 363.73 1117.23 358.83 1127.57 354.08 1137.91 349.67 1148.24 345.77 1158.57 342.53 1168.89 340.07 1179.2 338.44 1189.5 337.67 1199.8 337.72 1210.08 338.53 1220.35 339.97 1230.6 341.89 1240.84 344.12 1251.07 346.46 1261.28 348.71 1271.48 350.68 1281.66 352.18 1291.82 353.06 1301.96 353.2 1312.09 352.54 1322.19 351.03 1332.27 348.7 1342.33 345.6 1352.37 341.85 1362.38 337.58 1372.37 332.97 1382.33 328.19 1392.27 323.46 1402.18 318.96 1412.07 314.88 1421.93 311.37 1431.76 308.55 1441.56 306.52 1451.33 305.31" fill="url(#uuunion-grad3)" filter="url(#uuunion-blur2)"></path></svg>