<svg xmlns="http://www.w3.org/2000/svg" version="1.1" xmlns:xlink="http://www.w3.org/1999/xlink" xmlns:svgjs="http://svgjs.dev/svgjs" viewBox="0 0 1422 800"><defs><linearGradient x1="50%" y1="0%" x2="50%" y2="100%" id="oooscillate-grad"><stop stop-color="#7ecbff" stop-opacity="1" offset="0%"></stop><stop stop-color=" #0033a0" stop-opacity="1" offset="100%"></stop></linearGradient></defs><g stroke-width="2" stroke="url(#oooscillate-grad)" fill="none" stroke-linecap="round"><path d="M 0 9500 Q 355.5 -100 711 400 Q 1066.5 900 1422 9500" opacity="0.90"></path><path d="M 0 9375 Q 355.5 -100 711 400 Q 1066.5 900 1422 9375" opacity="0.90"></path><path d="M 0 9250 Q 355.5 -100 711 400 Q 1066.5 900 1422 9250" opacity="0.13"></path><path d="M 0 9125 Q 355.5 -100 711 400 Q 1066.5 900 1422 9125" opacity="0.85"></path><path d="M 0 9000 Q 355.5 -100 711 400 Q 1066.5 900 1422 9000" opacity="0.86"></path><path d="M 0 8875 Q 355.5 -100 711 400 Q 1066.5 900 1422 8875" opacity="0.32"></path><path d="M 0 8750 Q 355.5 -100 711 400 Q 1066.5 900 1422 8750" opacity="0.96"></path><path d="M 0 8625 Q 355.5 -100 711 400 Q 1066.5 900 1422 8625" opacity="0.44"></path><path d="M 0 8500 Q 355.5 -100 711 400 Q 1066.5 900 1422 8500" opacity="0.47"></path><path d="M 0 8375 Q 355.5 -100 711 400 Q 1066.5 900 1422 8375" opacity="0.27"></path><path d="M 0 8250 Q 355.5 -100 711 400 Q 1066.5 900 1422 8250" opacity="0.21"></path><path d="M 0 8125 Q 355.5 -100 711 400 Q 1066.5 900 1422 8125" opacity="0.81"></path><path d="M 0 8000 Q 355.5 -100 711 400 Q 1066.5 900 1422 8000" opacity="0.94"></path><path d="M 0 7875 Q 355.5 -100 711 400 Q 1066.5 900 1422 7875" opacity="0.35"></path><path d="M 0 7750 Q 355.5 -100 711 400 Q 1066.5 900 1422 7750" opacity="0.14"></path><path d="M 0 7625 Q 355.5 -100 711 400 Q 1066.5 900 1422 7625" opacity="0.90"></path><path d="M 0 7500 Q 355.5 -100 711 400 Q 1066.5 900 1422 7500" opacity="0.51"></path><path d="M 0 7375 Q 355.5 -100 711 400 Q 1066.5 900 1422 7375" opacity="0.44"></path><path d="M 0 7250 Q 355.5 -100 711 400 Q 1066.5 900 1422 7250" opacity="0.51"></path><path d="M 0 7125 Q 355.5 -100 711 400 Q 1066.5 900 1422 7125" opacity="0.55"></path><path d="M 0 7000 Q 355.5 -100 711 400 Q 1066.5 900 1422 7000" opacity="0.30"></path><path d="M 0 6875 Q 355.5 -100 711 400 Q 1066.5 900 1422 6875" opacity="0.95"></path><path d="M 0 6750 Q 355.5 -100 711 400 Q 1066.5 900 1422 6750" opacity="0.80"></path><path d="M 0 6625 Q 355.5 -100 711 400 Q 1066.5 900 1422 6625" opacity="0.95"></path><path d="M 0 6500 Q 355.5 -100 711 400 Q 1066.5 900 1422 6500" opacity="0.42"></path><path d="M 0 6375 Q 355.5 -100 711 400 Q 1066.5 900 1422 6375" opacity="0.59"></path><path d="M 0 6250 Q 355.5 -100 711 400 Q 1066.5 900 1422 6250" opacity="0.69"></path><path d="M 0 6125 Q 355.5 -100 711 400 Q 1066.5 900 1422 6125" opacity="0.25"></path><path d="M 0 6000 Q 355.5 -100 711 400 Q 1066.5 900 1422 6000" opacity="0.56"></path><path d="M 0 5875 Q 355.5 -100 711 400 Q 1066.5 900 1422 5875" opacity="0.94"></path><path d="M 0 5750 Q 355.5 -100 711 400 Q 1066.5 900 1422 5750" opacity="0.41"></path><path d="M 0 5625 Q 355.5 -100 711 400 Q 1066.5 900 1422 5625" opacity="0.78"></path><path d="M 0 5500 Q 355.5 -100 711 400 Q 1066.5 900 1422 5500" opacity="0.32"></path><path d="M 0 5375 Q 355.5 -100 711 400 Q 1066.5 900 1422 5375" opacity="0.46"></path><path d="M 0 5250 Q 355.5 -100 711 400 Q 1066.5 900 1422 5250" opacity="0.99"></path><path d="M 0 5125 Q 355.5 -100 711 400 Q 1066.5 900 1422 5125" opacity="0.76"></path><path d="M 0 5000 Q 355.5 -100 711 400 Q 1066.5 900 1422 5000" opacity="0.75"></path><path d="M 0 4875 Q 355.5 -100 711 400 Q 1066.5 900 1422 4875" opacity="0.39"></path><path d="M 0 4750 Q 355.5 -100 711 400 Q 1066.5 900 1422 4750" opacity="0.87"></path><path d="M 0 4625 Q 355.5 -100 711 400 Q 1066.5 900 1422 4625" opacity="0.65"></path><path d="M 0 4500 Q 355.5 -100 711 400 Q 1066.5 900 1422 4500" opacity="0.91"></path><path d="M 0 4375 Q 355.5 -100 711 400 Q 1066.5 900 1422 4375" opacity="0.09"></path><path d="M 0 4250 Q 355.5 -100 711 400 Q 1066.5 900 1422 4250" opacity="0.64"></path><path d="M 0 4125 Q 355.5 -100 711 400 Q 1066.5 900 1422 4125" opacity="0.60"></path><path d="M 0 4000 Q 355.5 -100 711 400 Q 1066.5 900 1422 4000" opacity="0.81"></path><path d="M 0 3875 Q 355.5 -100 711 400 Q 1066.5 900 1422 3875" opacity="0.74"></path><path d="M 0 3750 Q 355.5 -100 711 400 Q 1066.5 900 1422 3750" opacity="0.97"></path><path d="M 0 3625 Q 355.5 -100 711 400 Q 1066.5 900 1422 3625" opacity="0.15"></path><path d="M 0 3500 Q 355.5 -100 711 400 Q 1066.5 900 1422 3500" opacity="0.55"></path><path d="M 0 3375 Q 355.5 -100 711 400 Q 1066.5 900 1422 3375" opacity="0.31"></path><path d="M 0 3250 Q 355.5 -100 711 400 Q 1066.5 900 1422 3250" opacity="0.51"></path><path d="M 0 3125 Q 355.5 -100 711 400 Q 1066.5 900 1422 3125" opacity="0.16"></path><path d="M 0 3000 Q 355.5 -100 711 400 Q 1066.5 900 1422 3000" opacity="0.25"></path><path d="M 0 2875 Q 355.5 -100 711 400 Q 1066.5 900 1422 2875" opacity="0.58"></path><path d="M 0 2750 Q 355.5 -100 711 400 Q 1066.5 900 1422 2750" opacity="0.80"></path><path d="M 0 2625 Q 355.5 -100 711 400 Q 1066.5 900 1422 2625" opacity="0.08"></path><path d="M 0 2500 Q 355.5 -100 711 400 Q 1066.5 900 1422 2500" opacity="0.97"></path><path d="M 0 2375 Q 355.5 -100 711 400 Q 1066.5 900 1422 2375" opacity="0.83"></path><path d="M 0 2250 Q 355.5 -100 711 400 Q 1066.5 900 1422 2250" opacity="0.99"></path><path d="M 0 2125 Q 355.5 -100 711 400 Q 1066.5 900 1422 2125" opacity="0.79"></path><path d="M 0 2000 Q 355.5 -100 711 400 Q 1066.5 900 1422 2000" opacity="0.72"></path><path d="M 0 1875 Q 355.5 -100 711 400 Q 1066.5 900 1422 1875" opacity="0.75"></path><path d="M 0 1750 Q 355.5 -100 711 400 Q 1066.5 900 1422 1750" opacity="0.70"></path><path d="M 0 1625 Q 355.5 -100 711 400 Q 1066.5 900 1422 1625" opacity="0.16"></path><path d="M 0 1500 Q 355.5 -100 711 400 Q 1066.5 900 1422 1500" opacity="0.99"></path><path d="M 0 1375 Q 355.5 -100 711 400 Q 1066.5 900 1422 1375" opacity="0.67"></path><path d="M 0 1250 Q 355.5 -100 711 400 Q 1066.5 900 1422 1250" opacity="0.39"></path><path d="M 0 1125 Q 355.5 -100 711 400 Q 1066.5 900 1422 1125" opacity="0.30"></path><path d="M 0 1000 Q 355.5 -100 711 400 Q 1066.5 900 1422 1000" opacity="0.79"></path><path d="M 0 875 Q 355.5 -100 711 400 Q 1066.5 900 1422 875" opacity="0.73"></path><path d="M 0 750 Q 355.5 -100 711 400 Q 1066.5 900 1422 750" opacity="0.22"></path><path d="M 0 625 Q 355.5 -100 711 400 Q 1066.5 900 1422 625" opacity="0.44"></path><path d="M 0 500 Q 355.5 -100 711 400 Q 1066.5 900 1422 500" opacity="0.89"></path><path d="M 0 375 Q 355.5 -100 711 400 Q 1066.5 900 1422 375" opacity="0.47"></path><path d="M 0 250 Q 355.5 -100 711 400 Q 1066.5 900 1422 250" opacity="0.54"></path></g></svg>